<?xml version="1.0" encoding="utf-8"?>
<!-- Generator: Adobe Illustrator 22.1.0, SVG Export Plug-In . SVG Version: 6.00 Build 0)  -->
<svg version="1.1" id="Light" xmlns="http://www.w3.org/2000/svg" xmlns:xlink="http://www.w3.org/1999/xlink" x="0px" y="0px"
	 viewBox="0 0 24 24" style="enable-background:new 0 0 24 24;" xml:space="preserve">
<g>
	<title>arrow-up-1</title>
	<path d="M0.535,18.873c-0.122,0-0.239-0.044-0.331-0.125c-0.207-0.183-0.226-0.5-0.044-0.706L11.286,5.469
		c0.026-0.03,0.055-0.059,0.086-0.086c0.183-0.162,0.418-0.251,0.662-0.251c0.287,0,0.56,0.123,0.75,0.337L23.91,18.042
		c0.183,0.207,0.163,0.523-0.043,0.706c-0.092,0.081-0.209,0.125-0.331,0.125c0,0,0,0,0,0c-0.143,0-0.279-0.061-0.374-0.168
		L12.035,6.131L0.91,18.705C0.815,18.812,0.678,18.873,0.535,18.873z"/>
</g>
</svg>
